<?xml version="1.0" encoding="utf-8"?>
<svg width="842" height="324" viewBox="0 0 842 324" fill="none" xmlns="http://www.w3.org/2000/svg" x="0px" y="0px">
<path d="M990.1 17H-148.3V303H990.1V17Z" fill="#B2916F"/>
<path d="M990.1 305.2H-148.3V323.3H990.1V305.2Z" fill="#D9DBDB"/>
<path fill-rule="evenodd" clip-rule="evenodd" d="M498.8 211.3C687.3 211.3 859.6 187 990.1 146.9V15.7H-148.3V146.9C-17.7 186.9 310.2 211.3 498.8 211.3Z" fill="#C2A07E"/>
<path d="M990.1 17H-148.3V38H990.1V17Z" fill="#A47F61"/>
<path d="M990.1 0.5H-148.3V17.1H990.1V0.5Z" fill="#925B30"/>
<path d="M990.1 0.5H-148.3V11.1H990.1V0.5Z" fill="#A66A3D"/>
<path d="M990.1 17H-148.3V21.2H990.1V17Z" fill="#414142"/>
<path d="M990.1 301.1H-148.3V305.3H990.1V301.1Z" fill="#414142"/>
</svg>

