<?xml version="1.0" encoding="utf-8"?>
<svg width="105" height="80" viewBox="0 0 105 80" fill="none" xmlns="http://www.w3.org/2000/svg" x="0px" y="0px">
<path fill-rule="evenodd" clip-rule="evenodd" d="M73.9 3L82.4 68H96.5L104.9 3H89.4H73.9Z" fill="#B1BDC9"/>
<path fill-rule="evenodd" clip-rule="evenodd" d="M77.2001 8.60001L84.6001 65.5H94.3L101.7 8.60001H77.2001Z" fill="#FFFEFD"/>
<path fill-rule="evenodd" clip-rule="evenodd" d="M87.0001 54.3L87.1001 72.8L78.3 79.8H100.5L91.8 72.7V54.2L87.0001 54.3Z" fill="#B1BDC9"/>
<path fill-rule="evenodd" clip-rule="evenodd" d="M79.6 5.5L80 8.60001H90.5V5.5H79.6Z" fill="#D1D7E0"/>
<path fill-rule="evenodd" clip-rule="evenodd" d="M77.8 13.5L84.6001 65.5H94.3L101 13.5H77.8Z" fill="#CD7343"/>
<path fill-rule="evenodd" clip-rule="evenodd" d="M87.4001 65.5H90.5001V13.5H80.7001L87.4001 65.5Z" fill="#E08F68"/>
<path fill-rule="evenodd" clip-rule="evenodd" d="M43.1 21.2C42 18.1 42.3 14.4 45.2 12.2C51.7 7.10001 58.2 11.5 58.9 18C59.5 23.9 54.7 27 51.4 27.6L49.7 21.7L43.1 21.2Z" fill="#F9B631"/>
<path fill-rule="evenodd" clip-rule="evenodd" d="M49 18.2L45.6 17.3L45.4 17.9L48.8 18.8L49 18.2ZM50.2 17.3L49.6 17.6L47.2 13.3L47.7 12.9L50.2 17.3ZM51.3 17.9C51.9 17 54 13.3 54 13.3L53.4 13C53.4 13 51.3 16.7 50.7 17.6L51.3 17.9ZM51.5 18.7L56.8 18.9V18.2L51.5 18V18.7ZM51.1 19.8L53.6 23.5L54.1 23.1L51.6 19.4L51.1 19.8Z" fill="#F69F13"/>
<path d="M51.5 28.2L51.2 26.8C56.6 25.7 58.7 23 58.2 18C57.9 14.9 56.1 12.2 53.5 11.1C51 10.1 48.3 10.6 45.7 12.6C43.1 14.6 42.4 17.9 43.9 21.1L42.6 21.7C40.8 17.9 41.7 13.9 44.9 11.4C47.9 8.99999 51.2 8.40001 54.2 9.70001C57.2 11 59.3999 14.1 59.7999 17.7C60.2999 23.6 57.6 27 51.5 28.2Z" fill="#F69F13"/>
<path fill-rule="evenodd" clip-rule="evenodd" d="M36.1 45.6L36 70.4L44.4 79.9H23.2L31.5 70.3V45.4L36.1 45.6Z" fill="#BCD0DB"/>
<path fill-rule="evenodd" clip-rule="evenodd" d="M33.8 51.7C23.3 51.7 12.4 36.2 12.4 19.8H55.3C55.2 36.5 44.3 51.7 33.8 51.7Z" fill="#BCD0DB"/>
<path fill-rule="evenodd" clip-rule="evenodd" d="M51.6 28.1C50.6 32.5 48.8 36.8 46.3 40.5C43.6 44.4 39 49 33.9 49C28.8 49 24.1 44.3 21.5 40.4C19 36.8 17.2 32.5 16.2 28.2H51.6V28.1Z" fill="#7BB053"/>
<path opacity="0.4" fill-rule="evenodd" clip-rule="evenodd" d="M33.9 22.4H49.8C49.7 24.3 49.1 26.8 49 27.6C48.1 31.7 46.4 35.6 44.1 39C42 42.1 38 46.3 34 46.3V27.7V22.4H33.9Z" fill="white"/>
<path fill-rule="evenodd" clip-rule="evenodd" d="M42.1 14.4C42.8 12.5 46 11 43.7 6.79999C43.5 6.39999 42.5 4.8 42.1 4.5C41.2 5.8 42.1 5.99999 40.5 7.79999C38.4 10.2 41.8 15.2 42.1 14.4Z" fill="#7BB053"/>
<path fill-rule="evenodd" clip-rule="evenodd" d="M42.1 15.6C43.2 14.9 44.9 15.3 46.2 14.4C47.1 13.8 47.8 12.8 48.1 10.7C48.2 10.2 49.7 7.60001 49.5 7.10001C48.9 7.00001 48.2 7.19999 47.4 7.29999C46.9 7.39999 46.1 8.59999 45 8.79999C41.6 9.59999 41.4 16.1 42.1 15.6Z" fill="#98C773"/>
<path fill-rule="evenodd" clip-rule="evenodd" d="M40.4 21C46 21.8 46.8 20.7 46.8 20.7C47.2 19.8 47.3 17.9 46.9 17C46.4 15.7 45.9 14.2 44.8 13.3C43.9 12.6 42.7 11.7 41.8 12.1C39.8 13 37.2 14.8 37 17C36.8 18.5 38.7 20.8 40.4 21Z" fill="#D05864"/>
<path fill-rule="evenodd" clip-rule="evenodd" d="M0.899994 6.60001L10.4 0.600008C11.4 8.16584e-06 12.9 0.100008 13.6 1.60001L26.1 28.1H23L11.4 3.10001L2.20001 8.70001L0.899994 6.60001Z" fill="#B1BDC9"/>
</svg>
