<?xml version="1.0" encoding="utf-8"?>
<svg width="213" height="208" viewBox="0 0 213 208" fill="none" xmlns="http://www.w3.org/2000/svg" x="0px" y="0px">
<path fill-rule="evenodd" clip-rule="evenodd" d="M0 150.8C24.1 158.5 62.7 156.9 79.4 150.9L52.4 110.3C43.8 107.8 35.4 107.6 27.3 109.5L0 150.8Z" fill="#AE794F"/>
<path d="M42.4 0H36.9V102.8H42.4V0Z" fill="#CECECF"/>
<path d="M44.4 97.8H34.9V111.5H44.4V97.8Z" fill="#AE794F"/>
<path d="M39.7 156.7C61.6257 156.7 79.4 154.193 79.4 151.1C79.4 148.007 61.6257 145.5 39.7 145.5C17.7743 145.5 0 148.007 0 151.1C0 154.193 17.7743 156.7 39.7 156.7Z" fill="#D9DBDB"/>
<path fill-rule="evenodd" clip-rule="evenodd" d="M11.1 141.7C21.7 139.6 29.3 138.8 37.5 139.5C35.7 131.7 33.2 121.8 30 115.2C27.2 117.4 13.9 137.4 11.1 141.7Z" fill="#C9A98C"/>
<path fill-rule="evenodd" clip-rule="evenodd" d="M133.2 202.1C155.1 208 192.6 208.6 212.6 201.9L184 160.8C175.5 159.4 167.1 159.2 158.9 161.5L133.2 202.1Z" fill="#AE794F"/>
<path d="M173.9 0.0999756H168.4V154H173.9V0.0999756Z" fill="#CECECF"/>
<path d="M175.9 149H166.4V162.7H175.9V149Z" fill="#AE794F"/>
<path fill-rule="evenodd" clip-rule="evenodd" d="M172.9 207.9C194.8 207.9 212.6 205.4 212.6 202.3C212.6 199.2 194.8 196.7 172.9 196.7C151 196.7 133.2 199.2 133.2 202.3C133.2 205.4 151 207.9 172.9 207.9Z" fill="#D9DBDB"/>
<path fill-rule="evenodd" clip-rule="evenodd" d="M145.5 192.4C156.1 190.3 163.7 189.5 171.9 190.2C170.1 182.4 167.6 172.5 164.4 165.9C161.6 168.2 148.3 188.1 145.5 192.4Z" fill="#C9A98C"/>
</svg>

