<svg fill="none" xmlns="http://www.w3.org/2000/svg" x="0px" y="0px" viewBox="0 0 438 432" xml:space="preserve">
<path d="M305.6 85.7C300.4 90.1 294 93.3 286.8 94.7C280.5 95.9 274.3 95.6 268.5 94.1C266.7 98.4 264 102.3 260.6 105.6L318.4 94.6C313.4 92.7 309 89.6 305.6 85.7ZM438 213.9L413.6 85.1L371.3 93.1L364.9 59.3L362.4 59.8C364.2 73.7 357 86.9 345 93.1L371.9 235.1L271.7 254.1L245.1 113.7C244.9 113.7 244.7 113.8 244.4 113.9C234.5 115.8 224.7 113 217.5 107L251.2 284.4L402.3 255.7L395.9 221.9L438 213.9ZM376.6 118.5L392.9 115.4L407.7 193.3L391.4 196.4L376.6 118.5ZM66.7 240.6L24.5 232.6L0 361.4L42.3 369.4L35.9 403.2L187 431.9L224.3 235.5L73.2 206.8L66.7 240.6ZM46.6 343.8L30.3 340.7L45.1 262.8L61.4 265.9L46.6 343.8ZM93.7 237.1L193.9 256.1L186.4 295.8C168.1 295.3 148.9 300.4 133 304.6C124.8 306.8 116.2 309 112.5 309C108.1 309 95.4 302 83.1 293.2L93.7 237.1ZM112.5 334.9C119.6 334.9 128.4 332.6 139.6 329.6C152.5 326.2 167.8 322.2 181.5 321.7L166.3 401.6L66.1 382.6L77.8 321C88.9 328 102.3 334.9 112.5 334.9Z" fill="#796A4F"/>
<path d="M238.1 127.4C229.1 127.4 220.3 124.7 212.6 119.6C202.5 112.8 195.7 102.4 193.4 90.5C191.1 78.5 193.6 66.4 200.4 56.3C206.9 46.7 216.6 40.1 227.8 37.5C233.9 19.2 249.3 5.3 268.8 1.5C288.4 -2.3 307.8 4.89999 320.2 19.6C320.6 19.5 321 19.4 321.3 19.4C346 14.6 370 30.8 374.7 55.5C379.5 80.2 363.3 104.2 338.6 108.9C326.7 111.2 314.4 108.6 304.6 102C299.8 104.6 294.6 106.5 289.2 107.5C284.6 108.4 279.9 108.7 275.3 108.4C268.6 117.8 258.5 124.5 246.8 126.7C243.9 127.1 241 127.4 238.1 127.4ZM238.2 62.1C236.9 62.1 235.6 62.2 234.4 62.4C229.2 63.4 224.8 66.3 221.8 70.7C218.9 75.1 217.8 80.3 218.8 85.5C219.8 90.7 222.7 95.1 227.1 98.1C231.5 101 236.7 102.1 241.9 101.1C248.5 99.8 253.9 95.4 256.4 89.1L260.7 78.5L271.7 81.4C275.8 82.5 280 82.6 284.2 81.8C288.9 80.9 293.4 78.8 297 75.6L306.7 67.4L315.1 76.9C319.8 82.2 326.7 84.6 333.6 83.2C344.3 81.1 351.3 70.8 349.2 60.1C347.1 49.4 336.8 42.4 326.1 44.5C324.3 44.8 322.6 45.5 320.9 46.3L309.6 52.1L303.6 40.9C297.8 30 285.7 24.3 273.5 26.6C261.6 28.9 252.5 38.5 251 50.6L249.5 61.9L238.2 62.1C238.2 62.1 238.3 62.1 238.2 62.1Z" fill="#796A4F"/>
</svg>
