<?xml version="1.0" encoding="utf-8"?>
<!-- Generator: Adobe Illustrator 24.1.0, SVG Export Plug-In . SVG Version: 6.00 Build 0)  -->
<svg version="1.1" id="Isolation_Mode" xmlns="http://www.w3.org/2000/svg" xmlns:xlink="http://www.w3.org/1999/xlink" x="0px"
	 y="0px" viewBox="0 0 414.5 152" style="enable-background:new 0 0 414.5 152;" xml:space="preserve">
<style type="text/css">
	.st0{fill:#FFFFFF;}
</style>
<g>
	<path class="st0" d="M46.7,122.1H29.2V32.2h22.1c19.5,0,27.9,10.7,27.9,29.4S70.8,91,51.3,91h-4.6V122.1z M49.6,76.7
		c9.7,0,12.5-4.1,12.5-15c0-11-2.9-15.3-12.5-15.3h-2.9v30.2H49.6z"/>
	<path class="st0" d="M84,92.4V32.2h18.1v61.3c0,9.8,1.4,15.3,8.1,15.3c6.7,0,8.3-5.4,8.3-15.3V32.2h18.1v60.2
		c0,18.4-6.3,30.9-26.4,30.9S84,110.8,84,92.4z"/>
	<path class="st0" d="M167.6,122.1h-24.4V32.2h24c18.7,0,25.1,9.7,25.1,23.8c0,11-6.1,18.3-15,19.8c10.7,2,16.7,9.4,16.7,21.4
		C194,112.9,186.2,122.1,167.6,122.1z M160.4,69.6h5c8.6,0,10.6-4.6,10.6-11.4s-2-11.8-10.6-11.8h-5V69.6z M160.4,83.1v24.7h5.6
		c8.7,0,11.1-4.4,11.1-12.3c0-7.7-2.4-12.4-11.1-12.4H160.4z"/>
	<path class="st0" d="M216.3,122.1V32.2H234v36.6h17.3V32.2h17.7v89.8h-17.7V83.4H234v38.6H216.3z"/>
	<path class="st0" d="M275.7,92.4V32.2h18.1v61.3c0,9.8,1.4,15.3,8.1,15.3c6.7,0,8.3-5.4,8.3-15.3V32.2h18.1v60.2
		c0,18.4-6.3,30.9-26.4,30.9C281.9,123.3,275.7,110.8,275.7,92.4z"/>
	<path class="st0" d="M359.4,122.1H335V32.2h24c18.7,0,25.1,9.7,25.1,23.8c0,11-6.1,18.3-15,19.8c10.7,2,16.7,9.4,16.7,21.4
		C385.8,112.9,378,122.1,359.4,122.1z M352.2,69.6h5c8.6,0,10.6-4.6,10.6-11.4s-2-11.8-10.6-11.8h-5V69.6z M352.2,83.1v24.7h5.6
		c8.7,0,11.1-4.4,11.1-12.3c0-7.7-2.4-12.4-11.1-12.4H352.2z"/>
</g>
</svg>
