<svg width="512" height="512" viewBox="0 0 512 512" fill="none" xmlns="http://www.w3.org/2000/svg">
<path d="M197.8 450.9V412.9C197.8 395.5 183.6 381.3 166.2 381.3C160.7 381.3 155.4 382.7 150.5 385.6L129.5 397.7C127.4 398.9 125 399.5 122.6 399.5C117.7 399.5 113.1 396.9 110.7 392.6L65.4 314.2C61.6 307.6 63.9 299.2 70.4 295.4L91.4 283.3C101.3 277.6 107.2 267.4 107.2 256C107.2 244.6 101.3 234.4 91.4 228.7L70.4 216.6C63.8 212.8 61.6 204.4 65.4 197.8L110.7 119.4C113.2 115.2 117.7 112.5 122.6 112.5C125 112.5 127.4 113.1 129.5 114.3L150.5 126.4C155.4 129.2 160.7 130.7 166.2 130.7C183.6 130.7 197.7 116.5 197.7 99.1V61.1H315.8V99.1C315.8 107.8 319.2 115.8 325.4 121.8C331.3 127.4 339.3 130.7 347.4 130.7C352.9 130.7 358.2 129.3 363.1 126.4L384.1 114.3C386.2 113.1 388.6 112.5 391 112.5C395.9 112.5 400.5 115.1 402.9 119.4L448.2 197.8C452 204.4 449.7 212.8 443.2 216.6L422.2 228.7C412.3 234.4 406.4 244.6 406.4 256C406.4 267.4 412.3 277.6 422.2 283.3L443.2 295.4C449.8 299.2 452 307.6 448.2 314.2L403 392.7C400.5 396.9 396 399.6 391.1 399.6C388.7 399.6 386.3 399 384.2 397.8L363.2 385.7C358.3 382.9 353 381.4 347.5 381.4C330.1 381.4 315.9 395.6 315.9 413V451H197.8V450.9ZM288.3 423.4V412.9C288.3 380.3 314.8 353.7 347.4 353.7C357.8 353.7 367.7 356.4 376.9 361.7L386 366.9L417.5 312.3L408.4 307.1C389.9 296.4 378.9 277.3 378.9 256C378.9 234.6 389.9 215.5 408.4 204.8L417.5 199.6L386 145L376.9 150.2C367.7 155.5 357.8 158.2 347.4 158.2C314.8 158.2 288.3 131.7 288.3 99V88.6H225.3V99.1C225.3 131.7 198.8 158.3 166.2 158.3C155.8 158.3 145.9 155.6 136.7 150.3L127.6 145.1L96.1 199.7L105.2 204.9C123.7 215.6 134.7 234.7 134.7 256C134.7 277.4 123.7 296.5 105.2 307.2L96.1 312.4L127.6 367L136.7 361.8C145.9 356.5 155.8 353.8 166.2 353.8C198.8 353.8 225.3 380.3 225.3 413V423.5H288.3V423.4Z" fill="#796A4F"/>
<path d="M313.4 63.6V99.1C313.4 119 329.7 133.2 347.5 133.2C353.2 133.2 359 131.8 364.5 128.6L385.5 116.5C387.3 115.5 389.2 115 391.1 115C395 115 398.8 117 400.9 120.6L446.2 199C449.3 204.4 447.5 211.3 442.1 214.4L421.1 226.5C398.4 239.6 398.4 272.3 421.1 285.4L442.1 297.5C447.5 300.6 449.3 307.5 446.2 312.9L400.9 391.3C398.8 394.9 395 396.9 391.1 396.9C389.2 396.9 387.2 396.4 385.5 395.4L364.5 383.3C359 380.1 353.2 378.7 347.5 378.7C329.7 378.7 313.4 392.9 313.4 412.8V448.3H200.3V412.8C200.3 392.9 184 378.7 166.2 378.7C160.5 378.7 154.7 380.1 149.2 383.3L128.2 395.4C126.4 396.4 124.5 396.9 122.6 396.9C118.7 396.9 114.9 394.9 112.8 391.3L67.5 313C64.4 307.6 66.2 300.7 71.6 297.6L92.6 285.5C115.3 272.4 115.3 239.7 92.6 226.6L71.6 214.5C66.2 211.4 64.4 204.5 67.5 199.1L112.8 120.7C114.9 117.1 118.7 115.1 122.6 115.1C124.5 115.1 126.5 115.6 128.2 116.6L149.2 128.7C154.7 131.9 160.5 133.3 166.2 133.3C184 133.3 200.2 119.1 200.2 99.2V63.6H313.4ZM166.2 155.8C156.8 155.8 147.1 153.4 138 148.1L126.7 141.6L92.7 200.5L104 207C141.7 228.8 141.7 283.2 104 305L92.7 311.5L126.7 370.4L138 363.9C147.1 358.6 156.8 356.2 166.2 356.2C195.7 356.2 222.8 379.8 222.8 412.9V425.9H290.8V412.9C290.8 379.9 317.9 356.2 347.4 356.2C356.8 356.2 366.5 358.6 375.6 363.9L386.9 370.4L420.9 311.5L409.6 305C371.9 283.2 371.9 228.8 409.6 207L420.9 200.5L386.9 141.6L375.6 148.1C366.5 153.4 356.8 155.8 347.4 155.8C317.9 155.8 290.8 132.2 290.8 99.1V86.1H222.8V99.1C222.8 132.2 195.7 155.8 166.2 155.8ZM318.4 58.6H313.4H200.3H195.3V63.6V99.1C195.3 115.1 182.3 128.2 166.3 128.2C161.2 128.2 156.4 126.9 151.8 124.3L130.8 112.2C128.3 110.8 125.5 110 122.7 110C116.9 110 111.5 113.1 108.6 118.1L63.3 196.5C61.1 200.3 60.5 204.6 61.7 208.8C62.8 213 65.5 216.5 69.3 218.7L90.3 230.8C99.4 236 104.8 245.4 104.8 255.9C104.8 266.4 99.4 275.8 90.3 281L69.3 293.1C61.5 297.6 58.9 307.6 63.3 315.3L108.6 393.7C111.5 398.7 116.9 401.8 122.7 401.8C125.5 401.8 128.4 401 130.8 399.6L151.8 387.5C156.3 384.9 161.2 383.6 166.3 383.6C173.7 383.6 181.1 386.6 186.5 391.8C192.2 397.3 195.3 404.7 195.3 412.7V448.2V453.2H200.3H313.4H318.4V448.2V412.7C318.4 396.7 331.4 383.6 347.5 383.6C352.6 383.6 357.4 384.9 362 387.5L383 399.6C385.5 401 388.3 401.8 391.1 401.8C396.9 401.8 402.3 398.7 405.2 393.7L450.5 315.3C455 307.5 452.3 297.6 444.5 293.1L423.5 281C414.4 275.8 409 266.4 409 255.9C409 245.4 414.4 236 423.5 230.8L444.5 218.7C452.3 214.2 454.9 204.2 450.5 196.5L405.2 118.1C402.3 113.1 396.9 110 391.1 110C388.3 110 385.4 110.8 383 112.2L362 124.3C357.5 126.9 352.6 128.2 347.5 128.2C340.1 128.2 332.7 125.2 327.3 120C321.6 114.5 318.5 107.1 318.5 99.1V63.6V58.6H318.4ZM227.8 91.1H285.8V99.1C285.8 116.1 292.5 131.8 304.6 143.4C316.1 154.4 331.7 160.7 347.5 160.7C358.3 160.7 368.6 157.9 378.2 152.4L385.1 148.4L414.1 198.7L407.2 202.7C387.9 213.8 376.4 233.8 376.4 256C376.4 278.2 387.9 298.2 407.2 309.3L414.1 313.3L385.1 363.5L378.2 359.5C368.8 354 358.1 351.2 347.5 351.2C331.8 351.2 316.1 357.5 304.7 368.5C292.6 380.1 285.9 395.9 285.9 412.8V420.8H227.9V412.8C227.9 395.8 221.2 380.1 209.1 368.5C197.6 357.5 182 351.2 166.2 351.2C155.4 351.2 145.1 354 135.5 359.5L128.6 363.5L99.6 313.2L106.5 309.2C125.8 298.1 137.3 278.1 137.3 255.9C137.3 233.7 125.8 213.7 106.5 202.6L99.6 198.6L128.6 148.4L135.5 152.4C144.9 157.9 155.6 160.7 166.2 160.7C181.9 160.7 197.6 154.4 209 143.4C221.1 131.8 227.8 116 227.8 99.1V91.1V91.1Z" fill="#796A4F"/>
<path d="M256.8 337.4C243.5 337.4 230.2 334.2 217.3 327.9C203.2 321.1 191.7 309.5 184.9 295.5C171.3 267.6 172.4 237.5 187.8 212.9C202.8 188.9 228.6 174.6 256.9 174.6C270.2 174.6 283.5 177.8 296.4 184C310.5 190.8 322 202.4 328.8 216.4C342.4 244.3 341.3 274.4 325.9 299C310.9 323.1 285 337.4 256.8 337.4ZM256.8 202.1C247 202.1 237.2 204.7 227.8 209.8C220.5 213.7 214.6 219.7 210.7 226.9C200.5 245.8 200.4 266.5 210.6 283.5C220.3 299.8 238 309.8 256.9 309.8C266.7 309.8 276.5 307.2 285.9 302.1C293.2 298.2 299.1 292.2 303 285C313.2 266.1 313.3 245.4 303.1 228.4C293.4 212.2 275.7 202.1 256.8 202.1Z" fill="#796A4F"/>
<path d="M256.8 177.1C269.2 177.1 282.2 180 295.2 186.3C308.8 192.9 319.9 204 326.5 217.6C355.2 276.6 312.7 335 256.8 335C244.4 335 231.4 332.1 218.4 325.8C204.8 319.2 193.7 308.1 187.1 294.5C158.4 235.4 200.9 177.1 256.8 177.1ZM256.8 312.4C266.5 312.4 276.8 309.9 287 304.4C294.7 300.3 301 293.9 305.2 286.2C328.4 243.1 297.6 199.6 256.8 199.6C247.1 199.6 236.8 202.1 226.6 207.6C218.9 211.7 212.6 218.1 208.5 225.8C185.2 268.8 216 312.4 256.8 312.4ZM256.8 172.1C242.3 172.1 228.1 175.9 215.5 183C203.4 189.9 193 199.8 185.6 211.6C169.7 236.9 168.6 267.9 182.6 296.6C189.7 311.2 201.6 323.1 216.2 330.2C229.4 336.6 243.1 339.9 256.8 339.9C271.3 339.9 285.5 336.1 298.1 329C310.2 322.1 320.6 312.2 328 300.4C343.9 275 345 244.1 331 215.4C323.9 200.8 312 188.9 297.4 181.8C284.2 175.3 270.5 172.1 256.8 172.1ZM256.8 307.4C238.8 307.4 221.9 297.8 212.7 282.3C203 266.1 203.1 246.4 212.9 228.2C216.6 221.3 222.2 215.8 229 212.1C238.1 207.2 247.5 204.7 256.9 204.7C274.9 204.7 291.8 214.3 301 229.8C310.7 246 310.6 265.7 300.8 283.9C297.1 290.8 291.5 296.3 284.7 300C275.6 304.9 266.2 307.4 256.8 307.4Z" fill="#796A4F"/>
</svg>
