<?xml version="1.0" encoding="utf-8"?>
<svg width="246" height="171" viewBox="0 0 246 171" fill="none" xmlns="http://www.w3.org/2000/svg" x="0px" y="0px">
<path fill-rule="evenodd" clip-rule="evenodd" d="M160.5 155.3C168.8 155.3 175.6 160.2 176.3 166.3H144.7C145.4 160.1 152.2 155.3 160.5 155.3Z" fill="#BD9A66"/>
<path fill-rule="evenodd" clip-rule="evenodd" d="M129.7 56C128.4 58.4 125.5 59.2 123.1 58C120.7 56.7 119.9 53.8 121.1 51.4C121.7 50.3 122.6 49 123 48.4L123.1 48.3C123.2 48.2 123.2 48.1 123.3 48C125.5 45.1 128.4 42.6 131.6 40.9C135 39.1 138.8 38 142.5 37.9C143.1 37.9 143 37.9 143.2 37.9C148.8 37.9 154 39.9 157.9 43.7C161.7 47.4 164.2 52.8 164.4 59.7C164.4 60.4 164.4 60.5 164.4 60.6V170.8H154.6V60.4C154.6 59.8 154.6 60 154.6 59.8C154.5 55.7 153.1 52.6 151 50.5C149 48.5 146.2 47.5 143.1 47.5C142.5 47.5 142.9 47.5 142.7 47.5C140.5 47.6 138.2 48.2 136.1 49.4C134.1 50.5 132.3 51.9 131.1 53.7L130.9 53.9L130.8 54C130.7 54.4 130.1 55.2 129.7 56Z" fill="#BD9A66"/>
<path fill-rule="evenodd" clip-rule="evenodd" d="M238.8 45.9C242.4 45.9 245.3 48.8 245.3 52.4C245.3 56 242.4 58.9 238.8 58.9H155.9C152.3 58.9 149.4 56 149.4 52.4C149.4 48.8 152.3 45.9 155.9 45.9H238.8Z" fill="#D9B885"/>
<path fill-rule="evenodd" clip-rule="evenodd" d="M119.4 45.9C123 45.9 125.9 48.8 125.9 52.4C125.9 56 123 58.9 119.4 58.9H6.5C2.9 58.9 0 56 0 52.4C0 48.8 2.9 45.9 6.5 45.9H119.4Z" fill="#D9B885"/>
<path fill-rule="evenodd" clip-rule="evenodd" d="M65.5 79.1L67.5 56.2C68.2 47.9 57.6 48 58.3 56.4L60.3 79.1C62.1 79.2 63.8 79.2 65.5 79.1Z" fill="#CFAC77"/>
<path fill-rule="evenodd" clip-rule="evenodd" d="M66.6 43.9L70.3 15.9C71.6 5.90002 54.4 6.10002 55.7 16.1L59.4 43.9C59.8 47.2 66.1 47.1 66.6 43.9Z" fill="#3B3B3B"/>
<path fill-rule="evenodd" clip-rule="evenodd" d="M68.8 30.6L70.8 15.7C72.2 4.99999 53.8 5.19999 55.2 15.9L57.2 30.6C59.1 30.7 61 30.8 63 30.8C64.9 30.8 66.9 30.7 68.8 30.6Z" fill="#BD9A66"/>
<path fill-rule="evenodd" clip-rule="evenodd" d="M55.8 13.4C55.6 14.2 55.6 15.1 55.7 16L59.4 43.8C59.6 45.4 61.3 46.2 62.9 46.2L66.3 20.1C67.2 13.8 60.4 11.6 55.8 13.4Z" fill="#45494A"/>
<path fill-rule="evenodd" clip-rule="evenodd" d="M55.3 13C55.1 13.8 55.1 14.8 55.2 15.8L57.2 30.5C59.1 30.6 61 30.7 63 30.7C63.7 30.7 64.5 30.7 65.2 30.7L66.6 20.2C67.5 13.4 60.2 11 55.3 13Z" fill="#D9B885"/>
<path fill-rule="evenodd" clip-rule="evenodd" d="M102.4 79.1L104.4 56.2C105.1 47.9 94.5 48 95.2 56.4L97.2 79.1C99 79.2 100.7 79.2 102.4 79.1Z" fill="#CFAC77"/>
<path fill-rule="evenodd" clip-rule="evenodd" d="M103.5 43.9L107.2 15.9C108.5 5.90002 91.3 6.10002 92.6 16.1L96.3 43.9C96.7 47.2 103.1 47.1 103.5 43.9Z" fill="#3B3B3B"/>
<path fill-rule="evenodd" clip-rule="evenodd" d="M105.7 30.6L107.7 15.7C109.1 4.99999 90.7 5.19999 92.1 15.9L94.1 30.6C96 30.7 97.9 30.8 99.9 30.8C101.9 30.8 103.8 30.7 105.7 30.6Z" fill="#BD9A66"/>
<path fill-rule="evenodd" clip-rule="evenodd" d="M92.7 13.4C92.5 14.2 92.5 15.1 92.6 16L96.3 43.8C96.5 45.4 98.2 46.2 99.8 46.2L103.2 20.1C104.1 13.8 97.3 11.6 92.7 13.4Z" fill="#45494A"/>
<path fill-rule="evenodd" clip-rule="evenodd" d="M92.2 13C92 13.8 92 14.8 92.1 15.8L94.1 30.5C96 30.6 97.9 30.7 99.9 30.7C100.6 30.7 101.4 30.7 102.1 30.7L103.5 20.2C104.4 13.4 97.1 11 92.2 13Z" fill="#D9B885"/>
<path fill-rule="evenodd" clip-rule="evenodd" d="M28.2 79.1L30.2 56.2C30.9 47.9 20.3 48 21 56.4L23 79.1C24.8 79.2 26.5 79.2 28.2 79.1Z" fill="#CFAC77"/>
<path fill-rule="evenodd" clip-rule="evenodd" d="M29.1 68.7L30.2 56.2C30.9 47.9 20.3 48 21 56.4L22.1 68.7C23.2 68.9 24.4 69 25.6 69C26.8 69 28 68.9 29.1 68.7Z" fill="#45494A"/>
<path fill-rule="evenodd" clip-rule="evenodd" d="M29.2 43.9L32.9 15.9C34.2 5.90002 17 6.10002 18.3 16.1L22 43.9C22.5 47.2 28.8 47.1 29.2 43.9Z" fill="#3B3B3B"/>
<path fill-rule="evenodd" clip-rule="evenodd" d="M31.5 30.6L33.5 15.7C34.9 4.99999 16.5 5.19999 17.9 15.9L19.9 30.6C21.8 30.7 23.7 30.8 25.7 30.8C27.6 30.8 29.6 30.7 31.5 30.6Z" fill="#BD9A66"/>
<path fill-rule="evenodd" clip-rule="evenodd" d="M18.5 13.4C18.3 14.2 18.3 15.1 18.4 16L22.1 43.8C22.3 45.4 24 46.2 25.6 46.2L29 20.1C29.9 13.8 23.1 11.6 18.5 13.4Z" fill="#45494A"/>
<path fill-rule="evenodd" clip-rule="evenodd" d="M18 13C17.8 13.8 17.8 14.8 17.9 15.8L19.9 30.5C21.8 30.6 23.7 30.7 25.7 30.7C26.4 30.7 27.2 30.7 27.9 30.7L29.3 20.2C30.1 13.4 22.9 11 18 13Z" fill="#D9B885"/>
<path fill-rule="evenodd" clip-rule="evenodd" d="M186 79.1L188 56.2C188.7 47.9 178.1 48 178.8 56.4L180.8 79.1C182.6 79.2 184.3 79.2 186 79.1Z" fill="#CFAC77"/>
<path fill-rule="evenodd" clip-rule="evenodd" d="M187.1 43.9L190.8 15.9C192.1 5.90002 174.9 6.10002 176.2 16.1L179.9 43.9C180.3 47.2 186.7 47.1 187.1 43.9Z" fill="#3B3B3B"/>
<path fill-rule="evenodd" clip-rule="evenodd" d="M189.3 30.6L191.3 15.7C192.7 4.99999 174.3 5.19999 175.7 15.9L177.7 30.6C179.6 30.7 181.5 30.8 183.5 30.8C185.5 30.8 187.4 30.7 189.3 30.6Z" fill="#BD9A66"/>
<path fill-rule="evenodd" clip-rule="evenodd" d="M176.3 13.4C176.1 14.2 176.1 15.1 176.2 16L179.9 43.8C180.1 45.4 181.8 46.2 183.4 46.2L186.8 20.1C187.7 13.8 180.9 11.6 176.3 13.4Z" fill="#45494A"/>
<path fill-rule="evenodd" clip-rule="evenodd" d="M175.8 13C175.6 13.8 175.6 14.8 175.7 15.8L177.7 30.5C179.6 30.6 181.5 30.7 183.5 30.7C184.2 30.7 185 30.7 185.7 30.7L187.1 20.2C188 13.4 180.7 11 175.8 13Z" fill="#D9B885"/>
<path fill-rule="evenodd" clip-rule="evenodd" d="M154.7 155.3C163 155.3 169.8 160.2 170.5 166.3H138.9C139.6 160.1 146.4 155.3 154.7 155.3Z" fill="#D9B885"/>
<path fill-rule="evenodd" clip-rule="evenodd" d="M224.3 79.1L226.3 56.2C227 47.9 216.4 48 217.1 56.4L219.1 79.1C220.9 79.2 222.6 79.2 224.3 79.1Z" fill="#CFAC77"/>
<path fill-rule="evenodd" clip-rule="evenodd" d="M225.4 43.9L229.1 15.9C230.4 5.90002 213.2 6.10002 214.5 16.1L218.2 43.9C218.6 47.2 225 47.1 225.4 43.9Z" fill="#3B3B3B"/>
<path fill-rule="evenodd" clip-rule="evenodd" d="M227.6 30.6L229.6 15.7C231 4.99999 212.6 5.19999 214 15.9L216 30.6C217.9 30.7 219.8 30.8 221.8 30.8C223.8 30.8 225.7 30.7 227.6 30.6Z" fill="#BD9A66"/>
<path fill-rule="evenodd" clip-rule="evenodd" d="M214.6 13.4C214.4 14.2 214.4 15.1 214.5 16L218.2 43.8C218.4 45.4 220.1 46.2 221.7 46.2L225.1 20.1C226 13.8 219.2 11.6 214.6 13.4Z" fill="#45494A"/>
<path fill-rule="evenodd" clip-rule="evenodd" d="M214.1 13C213.9 13.8 213.9 14.8 214 15.8L216 30.5C217.9 30.6 219.8 30.7 221.8 30.7C222.5 30.7 223.3 30.7 224 30.7L225.4 20.2C226.3 13.4 219 11 214.1 13Z" fill="#D9B885"/>
<path fill-rule="evenodd" clip-rule="evenodd" d="M117.6 102.1C119.1 111.7 118.2 122.2 115.4 131.3C112.9 139.1 112.1 142.5 113.3 150.8C113.9 154.5 115.8 162.3 111.9 164.7L111.3 165H91.6L91 164.7C87.1 162.3 89 154.5 89.6 150.8C90.9 142.5 90 139.1 87.5 131.3C84.6 121.9 83.8 111.5 85.2 101.8C85.6 99.3 86 96.8 86.4 94.3H116.2C116.8 96.9 117.2 99.5 117.6 102.1Z" fill="#BCD0DB"/>
<path fill-rule="evenodd" clip-rule="evenodd" d="M88.6 96.9C88.3 98.6 88 100.4 87.8 102.2C86.4 111.6 87.2 121.6 90 130.6C92.5 138.6 93.5 142.7 92.2 151.2C91.9 153.4 90.2 161.1 92.4 162.6H110.7C113 161.1 111.3 153.4 110.9 151.2C109.6 142.7 110.5 138.6 113.1 130.6C115.9 121.8 116.7 111.7 115.2 102.5C114.9 100.6 114.6 98.8 114.3 96.9H88.6Z" fill="#FFFEFD"/>
<path fill-rule="evenodd" clip-rule="evenodd" d="M115.9 107.8C116.4 115.5 115.4 123.6 113.1 130.6C110.5 138.8 109.6 142.3 111 151.1C111.6 155.1 112.9 161.3 110.7 162.7H92.3C90 161.3 91.3 155.1 92 151.1C93.4 142.3 92.4 138.7 89.9 130.6C87.6 123.4 86.7 115.5 87.1 107.8H115.9Z" fill="#F6A318"/>
<path fill-rule="evenodd" clip-rule="evenodd" d="M115.3 102.5C115.6 104.5 115.8 106.4 115.9 108.5H86.9C87 106.5 87.2 104.5 87.5 102.5H115.3Z" fill="#F6A318"/>
<path opacity="0.3" fill-rule="evenodd" clip-rule="evenodd" d="M102 104.9H90.2001C89.9001 107.2 89.7001 109.4 89.8001 111.7C89.8001 117.9 90.7 124.1 92.5 130C95.2 138.5 96.1001 142.6 94.7001 151.6C94.5001 153 93.4001 158.6 93.9001 160.5H102V104.9Z" fill="white"/>
<path d="M149.1 25H138.1V41.8H149.1V25Z" fill="#BD9A66"/>
<path fill-rule="evenodd" clip-rule="evenodd" d="M129.6 5.29997C132.8 2.39997 137.3 0.599976 142.2 0.599976C147.1 0.599976 151.5 2.39997 154.8 5.29997C158.1 8.29997 160.1 12.4 160.1 16.9C160.1 21.4 158.1 25.5 154.8 28.5C151.6 31.4 147.1 33.2 142.2 33.2C137.3 33.2 132.9 31.4 129.6 28.5C126.3 25.5 124.3 21.4 124.3 16.9C124.3 12.3 126.3 8.19997 129.6 5.29997Z" fill="#BD9A66"/>
<path d="M145.6 25H134.5V41.8H145.6V25Z" fill="#D9B885"/>
<path fill-rule="evenodd" clip-rule="evenodd" d="M126.8 4.89999C130 1.89999 134.4 0 139.2 0C144 0 148.4 1.89999 151.6 4.89999C154.8 7.99999 156.8 12.2 156.8 16.9C156.8 21.6 154.8 25.8 151.6 28.9C148.4 31.9 144 33.8 139.2 33.8C134.4 33.8 130 31.9 126.8 28.9C123.6 25.8 121.6 21.6 121.6 16.9C121.6 12.2 123.6 7.89999 126.8 4.89999Z" fill="#D9B885"/>
<path d="M139.2 29.7C146.656 29.7 152.7 23.9692 152.7 16.9C152.7 9.83073 146.656 4.09998 139.2 4.09998C131.744 4.09998 125.7 9.83073 125.7 16.9C125.7 23.9692 131.744 29.7 139.2 29.7Z" fill="#925B30"/>
<path fill-rule="evenodd" clip-rule="evenodd" d="M132.6 5.70001C128.5 7.90001 125.8 12.1 125.8 16.8C125.8 23.6 131.5 29.2 138.6 29.6C142.7 27.4 145.4 23.2 145.4 18.5C145.4 11.7 139.7 6.10001 132.6 5.70001Z" fill="#AE794F"/>
<path fill-rule="evenodd" clip-rule="evenodd" d="M125.5 55.1C124.1 57.4 121 58 118.8 56.6C116.5 55.2 115.9 52.1 117.3 49.9C119.5 46.4 122.6 43.4 126.2 41.3C129.7 39.3 133.7 38 137.9 37.9C138.5 37.9 138.4 37.9 138.6 37.9C144.2 37.9 149.4 39.9 153.3 43.7C157.1 47.4 159.6 52.8 159.8 59.7C159.8 60.4 159.8 60.5 159.8 60.6V159.3C159.8 162 157.6 164.2 154.9 164.2C152.2 164.2 150 162 150 159.3V60.4C150 59.8 150 60 150 59.8C149.9 55.7 148.5 52.6 146.4 50.5C144.4 48.5 141.6 47.5 138.5 47.5C137.9 47.5 138.3 47.5 138.1 47.5C135.6 47.6 133.2 48.3 131.1 49.6C128.9 50.9 127 52.8 125.5 55.1Z" fill="#D9B885"/>
<path fill-rule="evenodd" clip-rule="evenodd" d="M66.4 68.7L67.5 56.2C68.2 47.9 57.6 48 58.3 56.4L59.4 68.7C60.5 68.9 61.7 69 62.9 69C64.2 69 65.3 68.9 66.4 68.7Z" fill="#45494A"/>
<path fill-rule="evenodd" clip-rule="evenodd" d="M63 64.8C72 64.8 79.3 59 79.3 52C79.3 44.9 72 39.2 63 39.2C54 39.2 46.7 45 46.7 52C46.6 59.1 54 64.8 63 64.8Z" fill="#CD7343"/>
<path fill-rule="evenodd" clip-rule="evenodd" d="M54.9 40.9C50 43.1 46.6 47.3 46.6 52C46.6 58.8 53.5 64.4 62.1 64.8C67 62.6 70.4 58.4 70.4 53.7C70.4 46.8 63.5 41.2 54.9 40.9Z" fill="#E08F68"/>
<path fill-rule="evenodd" clip-rule="evenodd" d="M103.4 68.7L104.5 56.2C105.2 47.9 94.6 48 95.3 56.4L96.4 68.7C97.5 68.9 98.7 69 99.9 69C101.1 69 102.2 68.9 103.4 68.7Z" fill="#45494A"/>
<path d="M25.6 64.8C34.6022 64.8 41.9 59.0693 41.9 52C41.9 44.9308 34.6022 39.2 25.6 39.2C16.5978 39.2 9.30002 44.9308 9.30002 52C9.30002 59.0693 16.5978 64.8 25.6 64.8Z" fill="#788650"/>
<path fill-rule="evenodd" clip-rule="evenodd" d="M17.6 40.9C12.7 43.1 9.30002 47.3 9.30002 52C9.30002 58.8 16.2 64.4 24.8 64.8C29.7 62.6 33.1 58.4 33.1 53.7C33.1 46.8 26.2 41.2 17.6 40.9Z" fill="#8F9F5D"/>
<path fill-rule="evenodd" clip-rule="evenodd" d="M187 68.7L188.1 56.2C188.8 47.9 178.2 48 178.9 56.4L180 68.7C181.1 68.9 182.3 69 183.5 69C184.7 69 185.8 68.9 187 68.7Z" fill="#45494A"/>
<path fill-rule="evenodd" clip-rule="evenodd" d="M183.5 64.8C192.5 64.8 199.8 59 199.8 52C199.8 44.9 192.5 39.2 183.5 39.2C174.5 39.2 167.2 45 167.2 52C167.1 59.1 174.5 64.8 183.5 64.8Z" fill="#829D6C"/>
<path fill-rule="evenodd" clip-rule="evenodd" d="M175.4 40.9C170.5 43.1 167.1 47.3 167.1 52C167.1 58.8 174 64.4 182.6 64.8C187.5 62.6 190.9 58.4 190.9 53.7C190.9 46.8 184 41.2 175.4 40.9Z" fill="#94A884"/>
<path fill-rule="evenodd" clip-rule="evenodd" d="M225.3 68.7L226.4 56.2C227.1 47.9 216.5 48 217.2 56.4L218.3 68.7C219.4 68.9 220.6 69 221.8 69C223 69 224.1 68.9 225.3 68.7Z" fill="#45494A"/>
<path d="M221.8 64.8C230.802 64.8 238.1 59.0693 238.1 52C238.1 44.9308 230.802 39.2 221.8 39.2C212.798 39.2 205.5 44.9308 205.5 52C205.5 59.0693 212.798 64.8 221.8 64.8Z" fill="#CD7343"/>
<path fill-rule="evenodd" clip-rule="evenodd" d="M213.7 40.9C208.8 43.1 205.4 47.3 205.4 52C205.4 58.8 212.3 64.4 220.9 64.8C225.8 62.6 229.2 58.4 229.2 53.7C229.2 46.8 222.4 41.2 213.7 40.9Z" fill="#E08F68"/>
<path fill-rule="evenodd" clip-rule="evenodd" d="M99.9 64.8C108.9 64.8 116.2 59 116.2 52C116.2 44.9 108.9 39.2 99.9 39.2C90.9 39.2 83.6 45 83.6 52C83.6 59.1 90.9 64.8 99.9 64.8Z" fill="#5F708B"/>
<path fill-rule="evenodd" clip-rule="evenodd" d="M91.8 40.9C86.9 43.1 83.5 47.3 83.5 52C83.5 58.8 90.4 64.4 99 64.8C103.9 62.6 107.3 58.4 107.3 53.7C107.3 46.8 100.5 41.2 91.8 40.9Z" fill="#8290A6"/>
<path fill-rule="evenodd" clip-rule="evenodd" d="M21.9 164.9H231.2C232.8 164.9 234.1 166.2 234.1 167.8V170.7H19V167.8C19 166.2 20.3 164.9 21.9 164.9Z" fill="#45494A"/>
<path fill-rule="evenodd" clip-rule="evenodd" d="M86.5 94.3C88.1 89.6 92.9 87.1999 101.1 87.1999C109.2 87.0999 114.8 89.8 116.3 94.3H86.5Z" fill="#E6E7E7"/>
<path fill-rule="evenodd" clip-rule="evenodd" d="M89.2 94.2C90.5 90.9 94.5 89.3 101.1 89.2C107.7 89.2 112.3 91 113.5 94.2H89.2Z" fill="#FFFEFD"/>
</svg>
